<?xml version="1.0" encoding="utf-8"?>
<!-- Generator: Adobe Illustrator 16.0.3, SVG Export Plug-In . SVG Version: 6.00 Build 0)  -->
<!DOCTYPE svg PUBLIC "-//W3C//DTD SVG 1.1//EN" "http://www.w3.org/Graphics/SVG/1.1/DTD/svg11.dtd">
<svg version="1.1" id="Layer_1" xmlns="http://www.w3.org/2000/svg" xmlns:xlink="http://www.w3.org/1999/xlink" x="0px" y="0px"
	 width="612px" height="792px" viewBox="0 0 612 792" enable-background="new 0 0 612 792" xml:space="preserve">
<polyline fill="none" stroke="#000000" stroke-linecap="round" stroke-linejoin="round" stroke-miterlimit="10" points="
	444.36,644.88 443.46,644.82 442.56,644.64 441.72,644.16 441,643.62 440.34,642.9 439.86,642.12 439.56,641.22 439.32,640.38 
	439.32,639.42 439.56,638.52 439.86,637.62 440.34,636.84 441,636.18 441.72,635.64 442.56,635.16 443.46,634.92 444.36,634.8 
	445.32,634.92 446.16,635.16 447.06,635.64 447.78,636.18 448.44,636.84 448.92,637.62 449.22,638.52 449.4,639.42 449.4,640.38 
	449.22,641.22 448.92,642.12 448.44,642.9 447.78,643.62 447.06,644.16 446.16,644.64 445.32,644.82 444.36,644.88 "/>
<polyline fill="none" stroke="#000000" stroke-linecap="round" stroke-linejoin="round" stroke-miterlimit="10" points="
	126.66,197.34 125.7,197.28 124.8,196.98 123.96,196.56 123.24,195.96 122.64,195.36 122.1,194.52 121.74,193.68 121.62,192.72 
	121.62,191.82 121.74,190.92 122.1,190.08 122.64,189.3 123.24,188.58 123.96,187.98 124.8,187.56 125.7,187.32 126.66,187.26 
	127.56,187.32 128.46,187.56 129.3,187.98 130.02,188.58 130.68,189.3 131.1,190.08 131.46,190.92 131.64,191.82 131.64,192.72 
	131.46,193.68 131.1,194.52 130.68,195.36 130.02,195.96 129.3,196.56 128.46,196.98 127.56,197.28 126.66,197.34 "/>
<polyline fill="none" stroke="#000000" stroke-linecap="round" stroke-linejoin="round" stroke-miterlimit="10" points="
	126.66,644.88 125.7,644.82 124.8,644.64 123.96,644.16 123.24,643.62 122.64,642.9 122.1,642.12 121.74,641.22 121.62,640.38 
	121.62,639.42 121.74,638.52 122.1,637.62 122.64,636.84 123.24,636.18 123.96,635.64 124.8,635.16 125.7,634.92 126.66,634.8 
	127.56,634.92 128.46,635.16 129.3,635.64 130.02,636.18 130.68,636.84 131.1,637.62 131.46,638.52 131.64,639.42 131.64,640.38 
	131.46,641.22 131.1,642.12 130.68,642.9 130.02,643.62 129.3,644.16 128.46,644.64 127.56,644.82 126.66,644.88 "/>
<polyline fill="none" stroke="#000000" stroke-linecap="round" stroke-linejoin="round" stroke-miterlimit="10" points="
	444.36,197.34 443.46,197.28 442.56,196.98 441.72,196.56 441,195.96 440.34,195.36 439.86,194.52 439.56,193.68 439.32,192.72 
	439.32,191.82 439.56,190.92 439.86,190.08 440.34,189.3 441,188.58 441.72,187.98 442.56,187.56 443.46,187.32 444.36,187.26 
	445.32,187.32 446.16,187.56 447.06,187.98 447.78,188.58 448.44,189.3 448.92,190.08 449.22,190.92 449.4,191.82 449.4,192.72 
	449.22,193.68 448.92,194.52 448.44,195.36 447.78,195.96 447.06,196.56 446.16,196.98 445.32,197.28 444.36,197.34 "/>
<polyline fill="none" stroke="#000000" stroke-linecap="round" stroke-linejoin="round" stroke-miterlimit="10" points="
	106.32,689.34 105.42,689.28 104.4,688.979 103.56,688.56 102.72,688.02 102,687.3 101.46,686.52 101.04,685.56 100.8,684.66 
	100.74,683.64 100.74,149.4 "/>
<line fill="none" stroke="#000000" stroke-linecap="round" stroke-linejoin="round" stroke-miterlimit="10" x1="506.04" y1="689.34" x2="106.32" y2="689.34"/>
<polyline fill="none" stroke="#000000" stroke-linecap="round" stroke-linejoin="round" stroke-miterlimit="10" points="
	511.68,683.64 511.62,684.66 511.32,685.56 510.96,686.52 510.42,687.3 509.7,688.02 508.92,688.56 507.96,688.979 507,689.28 
	506.04,689.34 "/>
<line fill="none" stroke="#000000" stroke-linecap="round" stroke-linejoin="round" stroke-miterlimit="10" x1="511.68" y1="149.4" x2="511.68" y2="683.64"/>
<polyline fill="none" stroke="#000000" stroke-linecap="round" stroke-linejoin="round" stroke-miterlimit="10" points="
	506.04,143.76 507,143.88 507.96,144.06 508.92,144.48 509.7,145.08 510.42,145.8 510.96,146.58 511.32,147.54 511.62,148.44 
	511.68,149.4 "/>
<line fill="none" stroke="#000000" stroke-linecap="round" stroke-linejoin="round" stroke-miterlimit="10" x1="106.32" y1="143.76" x2="506.04" y2="143.76"/>
<polyline fill="none" stroke="#000000" stroke-linecap="round" stroke-linejoin="round" stroke-miterlimit="10" points="
	100.74,149.4 100.8,148.44 101.04,147.54 101.46,146.58 102,145.8 102.72,145.08 103.56,144.48 104.4,144.06 105.42,143.88 
	106.32,143.76 "/>
<polyline fill="none" stroke="#000000" stroke-linecap="round" stroke-linejoin="round" stroke-miterlimit="10" points="
	138.84,651.18 138.48,651.479 137.94,651.6 137.46,651.54 137.04,651.3 136.68,650.94 136.44,650.52 136.44,650.04 136.56,649.56 
	136.8,649.14 136.8,184.02 136.56,183.6 136.44,183.18 136.44,182.64 136.68,182.22 137.04,181.86 137.46,181.68 137.94,181.68 
	138.48,181.74 138.84,182.04 431.04,182.04 431.4,181.74 431.94,181.68 432.42,181.68 432.84,181.86 "/>
<polyline fill="none" stroke="#000000" stroke-linecap="round" stroke-linejoin="round" stroke-miterlimit="10" points="
	432.84,181.86 433.2,182.22 433.44,182.64 433.44,183.18 433.38,183.6 433.08,184.02 433.08,649.14 433.38,649.56 433.44,650.04 
	433.44,650.52 433.2,650.94 432.84,651.3 432.42,651.54 431.94,651.6 431.4,651.48 431.04,651.18 138.84,651.18 "/>
<polyline fill="none" stroke="#000000" stroke-linecap="round" stroke-linejoin="round" stroke-miterlimit="10" points="116.28,165 
	117.3,164.94 118.2,164.64 119.1,164.22 119.94,163.74 120.6,163.02 121.2,162.24 121.62,161.28 121.92,160.32 121.98,159.36 
	121.92,158.4 121.62,157.38 121.2,156.54 120.6,155.76 119.94,155.04 119.1,154.44 118.2,154.02 117.3,153.78 116.28,153.72 
	115.26,153.78 114.36,154.02 113.46,154.44 112.62,155.04 111.96,155.76 111.36,156.54 110.94,157.38 110.64,158.4 110.58,159.36 
	110.64,160.32 110.94,161.28 111.36,162.24 111.96,163.02 112.62,163.74 113.46,164.22 114.36,164.64 115.26,164.94 116.28,165 "/>
<polyline fill="none" stroke="#000000" stroke-linecap="round" stroke-linejoin="round" stroke-miterlimit="10" points="481.98,165 
	482.88,164.94 483.9,164.64 484.8,164.22 485.58,163.74 486.3,163.02 486.84,162.24 487.32,161.28 487.5,160.32 487.68,159.36 
	487.5,158.4 487.32,157.38 486.84,156.54 486.3,155.76 485.58,155.04 484.8,154.44 483.9,154.02 482.88,153.78 481.98,153.72 
	480.96,153.78 480,154.02 479.1,154.44 478.32,155.04 477.6,155.76 477.06,156.54 476.64,157.38 476.34,158.4 476.28,159.36 
	476.34,160.32 476.64,161.28 477.06,162.24 477.6,163.02 478.32,163.74 479.1,164.22 480,164.64 480.96,164.94 481.98,165 "/>
<polyline fill="none" stroke="#000000" stroke-linecap="round" stroke-linejoin="round" stroke-miterlimit="10" points="
	116.28,679.38 117.3,679.32 118.2,679.02 119.1,678.66 119.94,678.12 120.6,677.4 121.2,676.56 121.62,675.66 121.92,674.7 
	121.98,673.68 121.92,672.78 121.62,671.82 121.2,670.92 120.6,670.08 119.94,669.36 119.1,668.82 118.2,668.4 117.3,668.16 
	116.28,668.1 115.26,668.16 114.36,668.4 113.46,668.82 112.62,669.36 111.96,670.08 111.36,670.92 110.94,671.82 110.64,672.78 
	110.58,673.68 110.64,674.7 110.94,675.66 111.36,676.56 111.96,677.4 112.62,678.12 113.46,678.66 114.36,679.02 115.26,679.32 
	116.28,679.38 "/>
<polyline fill="none" stroke="#000000" stroke-linecap="round" stroke-linejoin="round" stroke-miterlimit="10" points="
	481.98,679.38 482.88,679.32 483.9,679.02 484.8,678.66 485.58,678.12 486.3,677.4 486.84,676.56 487.32,675.66 487.5,674.7 
	487.68,673.68 487.5,672.78 487.32,671.82 486.84,670.92 486.3,670.08 485.58,669.36 484.8,668.82 483.9,668.4 482.88,668.16 
	481.98,668.1 480.96,668.16 480,668.4 479.1,668.82 478.32,669.36 477.6,670.08 477.06,670.92 476.64,671.82 476.34,672.78 
	476.28,673.68 476.34,674.7 476.64,675.66 477.06,676.56 477.6,677.4 478.32,678.12 479.1,678.66 480,679.02 480.96,679.32 
	481.98,679.38 "/>
<polyline fill="none" stroke="#000000" stroke-linecap="round" stroke-linejoin="round" stroke-miterlimit="10" points="
	480.18,296.28 481.68,297.06 483.06,298.02 484.32,299.1 485.52,300.24 486.6,301.56 487.5,303 488.22,304.44 488.88,306 
	489.36,307.56 489.66,309.24 489.9,310.92 489.9,312.54 489.66,314.22 489.36,315.84 488.88,317.46 488.22,319.02 487.5,320.46 
	486.6,321.9 485.52,323.22 484.32,324.36 483.06,325.44 481.68,326.4 480.18,327.18 465.24,327.18 463.8,326.4 462.48,325.44 
	461.16,324.36 460.02,323.22 458.94,321.9 457.98,320.46 457.2,319.02 456.54,317.46 456.12,315.84 455.76,314.22 455.64,312.54 
	455.64,310.92 455.76,309.24 456.12,307.56 456.54,306 457.2,304.44 "/>
<polyline fill="none" stroke="#000000" stroke-linecap="round" stroke-linejoin="round" stroke-miterlimit="10" points="
	457.2,304.44 457.98,303 458.94,301.56 460.02,300.24 461.16,299.1 462.48,298.02 463.8,297.06 465.24,296.28 480.18,296.28 "/>
<polyline fill="none" stroke="#000000" stroke-linecap="round" stroke-linejoin="round" stroke-miterlimit="10" points="
	480.18,442.74 481.68,443.52 483.06,444.48 484.32,445.56 485.52,446.7 486.6,447.96 487.5,449.4 488.22,450.84 488.88,452.46 
	489.36,454.02 489.66,455.7 489.9,457.32 489.9,459 489.66,460.68 489.36,462.3 488.88,463.92 488.22,465.48 487.5,466.92 
	486.6,468.36 485.52,469.68 484.32,470.82 483.06,471.9 481.68,472.8 480.18,473.64 465.24,473.64 463.8,472.8 462.48,471.9 
	461.16,470.82 460.02,469.68 458.94,468.36 457.98,466.92 457.2,465.48 456.54,463.92 456.12,462.3 455.76,460.68 455.64,459 
	455.64,457.32 455.76,455.7 456.12,454.02 456.54,452.46 457.2,450.84 457.98,449.4 458.94,447.96 460.02,446.7 461.16,445.56 
	462.48,444.48 463.8,443.52 465.24,442.74 480.18,442.74 "/>
<polyline fill="none" stroke="#000000" stroke-linecap="round" stroke-linejoin="round" stroke-miterlimit="10" points="
	480.18,589.2 481.68,589.98 483.06,590.88 484.32,591.96 485.52,593.22 486.6,594.48 487.5,595.86 488.22,597.3 488.88,598.92 
	489.36,600.48 489.66,602.16 489.9,603.78 489.9,605.46 489.66,607.08 489.36,608.76 488.88,610.32 488.22,611.94 487.5,613.38 
	486.6,614.82 485.52,616.08 484.32,617.28 483.06,618.36 481.68,619.26 480.18,620.04 465.24,620.04 463.8,619.26 462.48,618.36 
	461.16,617.28 460.02,616.08 458.94,614.82 457.98,613.38 457.2,611.94 456.54,610.32 456.12,608.76 455.76,607.08 455.64,605.46 
	455.64,603.78 455.76,602.16 456.12,600.48 456.54,598.92 457.2,597.3 457.98,595.86 458.94,594.48 460.02,593.22 461.16,591.96 
	462.48,590.88 463.8,589.98 465.24,589.2 480.18,589.2 "/>
<polyline fill="none" stroke="#000000" stroke-linecap="round" stroke-linejoin="round" stroke-miterlimit="10" points="
	480.18,515.94 481.68,516.72 483.06,517.68 484.32,518.76 485.52,519.9 486.6,521.28 487.5,522.66 488.22,524.1 488.88,525.66 
	489.36,527.28 489.66,528.9 489.9,530.58 489.9,532.2 489.66,533.88 489.36,535.56 488.88,537.12 488.22,538.68 487.5,540.12 
	486.6,541.56 485.52,542.88 484.32,544.02 483.06,545.1 481.68,546.06 480.18,546.84 465.24,546.84 463.8,546.06 462.48,545.1 
	461.16,544.02 460.02,542.88 458.94,541.56 457.98,540.12 457.2,538.68 456.54,537.12 456.12,535.56 455.76,533.88 455.64,532.2 
	455.64,530.58 455.76,528.9 456.12,527.28 456.54,525.66 457.2,524.1 457.98,522.66 458.94,521.28 460.02,519.9 461.16,518.76 
	462.48,517.68 463.8,516.72 465.24,515.94 480.18,515.94 "/>
<polyline fill="none" stroke="#000000" stroke-linecap="round" stroke-linejoin="round" stroke-miterlimit="10" points="
	480.18,369.48 481.68,370.32 483.06,371.22 484.32,372.3 485.52,373.44 486.6,374.76 487.5,376.2 488.22,377.64 488.88,379.2 
	489.36,380.82 489.66,382.44 489.9,384.12 489.9,385.8 489.66,387.42 489.36,389.1 488.88,390.66 488.22,392.28 487.5,393.72 
	486.6,395.16 485.52,396.42 484.32,397.56 483.06,398.64 481.68,399.6 480.18,400.38 465.24,400.38 463.8,399.6 462.48,398.64 
	461.16,397.56 460.02,396.42 458.94,395.16 457.98,393.72 457.2,392.28 456.54,390.66 456.12,389.1 455.76,387.42 455.64,385.8 
	455.64,384.12 455.76,382.44 456.12,380.82 456.54,379.2 457.2,377.64 457.98,376.2 458.94,374.76 460.02,373.44 461.16,372.3 
	462.48,371.22 463.8,370.32 465.24,369.48 480.18,369.48 "/>
<polyline fill="none" stroke="#000000" stroke-linecap="round" stroke-linejoin="round" stroke-miterlimit="10" points="
	480.18,223.08 481.68,223.86 483.06,224.76 484.32,225.84 485.52,227.04 486.6,228.3 487.5,229.74 488.22,231.18 488.88,232.8 
	489.36,234.36 489.66,236.04 489.9,237.66 489.9,239.34 489.66,240.96 489.36,242.64 488.88,244.2 488.22,245.82 487.5,247.26 
	486.6,248.64 485.52,249.9 484.32,251.16 483.06,252.24 481.68,253.14 480.18,253.92 465.24,253.92 463.8,253.14 462.48,252.24 
	461.16,251.16 460.02,249.9 458.94,248.64 457.98,247.26 457.2,245.82 456.54,244.2 456.12,242.64 455.76,240.96 455.64,239.34 
	455.64,237.66 455.76,236.04 456.12,234.36 456.54,232.8 457.2,231.18 457.98,229.74 458.94,228.3 460.02,227.04 461.16,225.84 
	462.48,224.76 463.8,223.86 465.24,223.08 480.18,223.08 "/>
</svg>
